{
  "source": "C:\\Users\\Peter\\Desktop\\stuff\\MIUN\\quantitative_research\\video_compression\\videos\\BVI-HD\\BVI-HD_CDVL_videos\\ORIG\\PlasmaAveragePan_1920x1080_60fps.mp4",
  "output": "C:\\Users\\Peter\\Desktop\\stuff\\MIUN\\quantitative_research\\video_compression\\compressed_videos\\BVI-HD\\av1\\3\\PlasmaAveragePan_1920x1080_60fps_av1.mkv",
  "codec": "av1",
  "ok": "Input #0, mov,mp4,m4a,3gp,3g2,mj2, from 'C:\\Users\\Peter\\Desktop\\stuff\\MIUN\\quantitative_research\\video_compression\\videos\\BVI-HD\\BVI-HD_CDVL_videos\\ORIG\\PlasmaAveragePan_1920x1080_60fps.mp4':\n  Metadata:\n    major_brand     : isom\n    minor_version   : 512\n    compatible_brands: isomiso2avc1mp41\n    encoder         : Lavf54.28.101\n  Duration: 00:00:05.00, start: 0.000000, bitrate: 73730 kb/s\n  Stream #0:0[0x1](und): Video: h264 (High 4:4:4 Predictive) (avc1 / 0x31637661), yuv420p(progressive), 1920x1080, 73727 kb/s, 60 fps, 60 tbr, 60 tbn (default)\n    Metadata:\n      handler_name    : VideoHandler\n      vendor_id       : [0][0][0][0]\n[out#0/matroska @ 00000226afb47900] Codec AVOption b:a (set bitrate (in bits/s)) has not been used for any stream. The most likely reason is either wrong type (e.g. a video option with no video streams) or that it is a private option of some decoder which was not actually used for any stream.\nStream mapping:\n  Stream #0:0 -> #0:0 (h264 (native) -> av1 (libsvtav1))\nPress [q] to stop, [?] for help\nSvt[info]: -------------------------------------------\nSvt[info]: SVT [version]:\tSVT-AV1 Encoder Lib v3.1.0-19-g6ecfe8ec\nSvt[info]: SVT [build]  :\tGCC 15.2.0\t 64 bit\nSvt[info]: LIB Build date: Aug 17 2025 11:37:13\nSvt[info]: -------------------------------------------\nSvt[info]: Level of Parallelism: 5\nSvt[info]: Number of PPCS 93\nSvt[info]: [asm level on system : up to avx2]\nSvt[info]: [asm level selected : up to avx2]\nSvt[info]: -------------------------------------------\nSvt[info]: SVT [config]: main profile\ttier (auto)\tlevel (auto)\nSvt[info]: SVT [config]: width / height / fps numerator / fps denominator \t\t: 1920 / 1080 / 60 / 1\nSvt[info]: SVT [config]: bit-depth / color format \t\t\t\t\t: 8 / YUV420\nSvt[info]: SVT [config]: preset / tune / pred struct \t\t\t\t\t: 4 / PSNR / random access\nSvt[info]: SVT [config]: gop size / mini-gop size / key-frame type \t\t\t: 321 / 16 / key frame\nSvt[info]: SVT [config]: BRC mode / target bitrate (kbps)\t\t\t\t: VBR / 3000 \nSvt[info]: SVT [config]: AQ mode / Variance Boost \t\t\t\t\t: 2 / 0\nSvt[info]: SVT [config]: sharpness / luminance-based QP bias \t\t\t\t: 0 / 0\nSvt[info]: SVT [config]: QP scale compress strength \t\t\t\t\t: 0\nSvt[info]: -------------------------------------------\nOutput #0, matroska, to 'C:\\Users\\Peter\\Desktop\\stuff\\MIUN\\quantitative_research\\video_compression\\compressed_videos\\BVI-HD\\av1\\3\\PlasmaAveragePan_1920x1080_60fps_av1.mkv':\n  Metadata:\n    major_brand     : isom\n    minor_version   : 512\n    compatible_brands: isomiso2avc1mp41\n    encoder         : Lavf62.3.100\n  Stream #0:0(und): Video: av1 (AV01 / 0x31305641), yuv420p(tv, progressive), 1920x1080, q=2-31, 3000 kb/s, 60 fps, 1k tbn (default)\n    Metadata:\n      encoder         : Lavc62.11.100 libsvtav1\n      handler_name    : VideoHandler\n      vendor_id       : [0][0][0][0]\n    Side data:\n      cpb: bitrate max/min/avg: 0/0/3000000 buffer size: 3000000 vbv_delay: N/A\nframe=    0 fps=0.0 q=0.0 size=       0KiB time=N/A bitrate=N/A speed=N/A elapsed=0:00:01.03    \nframe=    0 fps=0.0 q=0.0 size=       0KiB time=N/A bitrate=N/A speed=N/A elapsed=0:00:01.56    \nframe=    0 fps=0.0 q=0.0 size=       0KiB time=N/A bitrate=N/A speed=N/A elapsed=0:00:02.11    \nframe=    1 fps=0.4 q=15.0 size=       1KiB time=00:00:00.00 bitrate=N/A speed=   0x elapsed=0:00:02.64    \nframe=    1 fps=0.3 q=15.0 size=       1KiB time=00:00:00.00 bitrate=N/A speed=   0x elapsed=0:00:03.17    \nframe=    1 fps=0.3 q=15.0 size=       1KiB time=00:00:00.00 bitrate=N/A speed=   0x elapsed=0:00:03.71    \nframe=    2 fps=0.5 q=30.0 size=       1KiB time=00:00:00.01 bitrate= 341.8kbits/s speed=0.00393x elapsed=0:00:04.24    \nframe=    4 fps=0.8 q=30.0 size=       1KiB time=00:00:00.05 bitrate= 113.9kbits/s speed=0.0105x elapsed=0:00:04.78    \nframe=    6 fps=1.1 q=30.0 size=       1KiB time=00:00:00.08 bitrate=  68.4kbits/s speed=0.0157x elapsed=0:00:05.30    \nframe=    8 fps=1.4 q=30.0 size=       1KiB time=00:00:00.11 bitrate=  48.8kbits/s speed=0.02x elapsed=0:00:05.83    \nframe=   12 fps=1.9 q=30.0 size=       1KiB time=00:00:00.18 bitrate=  31.1kbits/s speed=0.0289x elapsed=0:00:06.34    \nframe=   15 fps=2.2 q=25.0 size=       1KiB time=00:00:00.23 bitrate=  24.4kbits/s speed=0.034x elapsed=0:00:06.87    \nframe=   18 fps=2.4 q=30.0 size=       1KiB time=00:00:00.28 bitrate=  20.1kbits/s speed=0.0383x elapsed=0:00:07.40    \nframe=   20 fps=2.5 q=30.0 size=       1KiB time=00:00:00.31 bitrate=  18.0kbits/s speed=0.0399x elapsed=0:00:07.93    \nframe=   22 fps=2.6 q=30.0 size=       1KiB time=00:00:00.35 bitrate=  16.3kbits/s speed=0.0414x elapsed=0:00:08.45    \nframe=   23 fps=2.6 q=26.0 size=       1KiB time=00:00:00.36 bitrate=  15.5kbits/s speed=0.0407x elapsed=0:00:09.01    \nframe=   26 fps=2.7 q=30.0 size=       1KiB time=00:00:00.40 bitrate=  14.2kbits/s speed=0.0418x elapsed=0:00:09.56    \nframe=   27 fps=2.7 q=27.0 size=       1KiB time=00:00:00.43 bitrate=  13.1kbits/s speed=0.0426x elapsed=0:00:10.16    \nframe=   29 fps=2.7 q=23.0 size=       1KiB time=00:00:00.46 bitrate=  12.2kbits/s speed=0.0432x elapsed=0:00:10.79    \nframe=   32 fps=2.8 q=30.0 size=       1KiB time=00:00:00.51 bitrate=  11.0kbits/s speed=0.0455x elapsed=0:00:11.35    \nframe=   33 fps=2.8 q=16.0 size=       1KiB time=00:00:00.53 bitrate=  10.7kbits/s speed=0.0448x elapsed=0:00:11.91    \nframe=   35 fps=2.8 q=27.0 size=       1KiB time=00:00:00.56 bitrate=  10.1kbits/s speed=0.0456x elapsed=0:00:12.43    \nframe=   37 fps=2.9 q=24.0 size=       1KiB time=00:00:00.60 bitrate=   9.5kbits/s speed=0.0462x elapsed=0:00:12.97    \nframe=   39 fps=2.9 q=27.0 size=       1KiB time=00:00:00.61 bitrate=   9.2kbits/s speed=0.0456x elapsed=0:00:13.52    \nframe=   41 fps=2.9 q=23.0 size=       1KiB time=00:00:00.66 bitrate=   8.5kbits/s speed=0.0472x elapsed=0:00:14.11    \nframe=   44 fps=3.0 q=31.0 size=       1KiB time=00:00:00.70 bitrate=   8.1kbits/s speed=0.0478x elapsed=0:00:14.63    \nframe=   48 fps=3.2 q=31.0 size=       1KiB time=00:00:00.78 bitrate=   7.3kbits/s speed=0.0517x elapsed=0:00:15.15    \nframe=   51 fps=3.3 q=29.0 size=       1KiB time=00:00:00.83 bitrate=   6.8kbits/s speed=0.0532x elapsed=0:00:15.67    \nframe=   53 fps=3.3 q=26.0 size=       1KiB time=00:00:00.86 bitrate=   6.6kbits/s speed=0.0535x elapsed=0:00:16.19    \nframe=   55 fps=3.3 q=29.0 size=       1KiB time=00:00:00.90 bitrate=   6.3kbits/s speed=0.0539x elapsed=0:00:16.70    \nframe=   58 fps=3.4 q=31.0 size=       1KiB time=00:00:00.95 bitrate=   6.0kbits/s speed=0.0551x elapsed=0:00:17.24    \nframe=   62 fps=3.5 q=32.0 size=       1KiB time=00:00:01.00 bitrate=   5.7kbits/s speed=0.0563x elapsed=0:00:17.77    \nframe=   65 fps=3.5 q=18.0 size=       1KiB time=00:00:01.06 bitrate=   5.3kbits/s speed=0.0582x elapsed=0:00:18.31    \nframe=   68 fps=3.6 q=32.0 size=       1KiB time=00:00:01.11 bitrate=   5.1kbits/s speed=0.0592x elapsed=0:00:18.85    \nframe=   70 fps=3.6 q=32.0 size=       1KiB time=00:00:01.15 bitrate=   5.0kbits/s speed=0.0593x elapsed=0:00:19.39    \nframe=   73 fps=3.7 q=26.0 size=       1KiB time=00:00:01.20 bitrate=   4.7kbits/s speed=0.0602x elapsed=0:00:19.92    \nframe=   76 fps=3.7 q=33.0 size=       1KiB time=00:00:01.25 bitrate=   4.6kbits/s speed=0.061x elapsed=0:00:20.47    \nframe=   80 fps=3.8 q=33.0 size=       1KiB time=00:00:01.31 bitrate=   4.3kbits/s speed=0.0627x elapsed=0:00:20.99    \nframe=   83 fps=3.9 q=31.0 size=       1KiB time=00:00:01.36 bitrate=   4.2kbits/s speed=0.0635x elapsed=0:00:21.52    \nframe=   85 fps=3.9 q=28.0 size=       1KiB time=00:00:01.40 bitrate=   4.1kbits/s speed=0.0635x elapsed=0:00:22.03    \nframe=   87 fps=3.9 q=31.0 size=       1KiB time=00:00:01.43 bitrate=   4.0kbits/s speed=0.0635x elapsed=0:00:22.56    \nframe=   90 fps=3.9 q=33.0 size=       1KiB time=00:00:01.48 bitrate=   3.8kbits/s speed=0.0642x elapsed=0:00:23.08    \nframe=   95 fps=4.0 q=31.0 size=       1KiB time=00:00:01.55 bitrate=   3.7kbits/s speed=0.0657x elapsed=0:00:23.60    \nframe=   98 fps=4.1 q=34.0 size=       1KiB time=00:00:01.61 bitrate=   3.5kbits/s speed=0.0669x elapsed=0:00:24.15    \nframe=  101 fps=4.1 q=28.0 size=       1KiB time=00:00:01.66 bitrate=   3.4kbits/s speed=0.0675x elapsed=0:00:24.68    \nframe=  103 fps=4.1 q=31.0 size=       1KiB time=00:00:01.70 bitrate=   3.4kbits/s speed=0.0674x elapsed=0:00:25.20    \nframe=  106 fps=4.1 q=34.0 size=       1KiB time=00:00:01.75 bitrate=   3.3kbits/s speed=0.068x elapsed=0:00:25.75    \nframe=  109 fps=4.1 q=28.0 size=       1KiB time=00:00:01.80 bitrate=   3.2kbits/s speed=0.0685x elapsed=0:00:26.28    \nframe=  114 fps=4.2 q=34.0 size=       1KiB time=00:00:01.88 bitrate=   3.0kbits/s speed=0.0702x elapsed=0:00:26.83    \nframe=  116 fps=4.2 q=34.0 size=       1KiB time=00:00:01.91 bitrate=   3.0kbits/s speed=0.0701x elapsed=0:00:27.34    \nframe=  119 fps=4.3 q=31.0 size=       1KiB time=00:00:01.96 bitrate=   2.9kbits/s speed=0.0706x elapsed=0:00:27.87    \nframe=  122 fps=4.3 q=34.0 size=       1KiB time=00:00:02.01 bitrate=   2.8kbits/s speed=0.0709x elapsed=0:00:28.43    \nframe=  126 fps=4.4 q=34.0 size=       1KiB time=00:00:02.08 bitrate=   2.7kbits/s speed=0.072x elapsed=0:00:28.95    \nframe=  129 fps=4.4 q=22.0 size=       1KiB time=00:00:02.13 bitrate=   2.7kbits/s speed=0.0724x elapsed=0:00:29.47    \nframe=  132 fps=4.4 q=34.0 size=       1KiB time=00:00:02.18 bitrate=   2.6kbits/s speed=0.0728x elapsed=0:00:29.98    \nframe=  135 fps=4.4 q=32.0 size=       1KiB time=00:00:02.23 bitrate=   2.6kbits/s speed=0.0732x elapsed=0:00:30.52    \nframe=  138 fps=4.4 q=34.0 size=       1KiB time=00:00:02.28 bitrate=   2.5kbits/s speed=0.0736x elapsed=0:00:31.04    \nframe=  141 fps=4.5 q=29.0 size=       1KiB time=00:00:02.33 bitrate=   2.4kbits/s speed=0.074x elapsed=0:00:31.55    \nframe=  145 fps=4.5 q=22.0 size=       1KiB time=00:00:02.40 bitrate=   2.4kbits/s speed=0.0748x elapsed=0:00:32.10    \nframe=  148 fps=4.5 q=34.0 size=       1KiB time=00:00:02.45 bitrate=   2.3kbits/s speed=0.0751x elapsed=0:00:32.62    \nframe=  150 fps=4.5 q=34.0 size=       1KiB time=00:00:02.48 bitrate=   2.3kbits/s speed=0.0749x elapsed=0:00:33.15    \nframe=  154 fps=4.6 q=34.0 size=       1KiB time=00:00:02.55 bitrate=   2.2kbits/s speed=0.0757x elapsed=0:00:33.69    \nframe=  157 fps=4.6 q=29.0 size=       1KiB time=00:00:02.60 bitrate=   2.2kbits/s speed=0.0759x elapsed=0:00:34.23    \nframe=  161 fps=4.6 q=23.0 size=       1KiB time=00:00:02.66 bitrate=   2.1kbits/s speed=0.0767x elapsed=0:00:34.75    \nframe=  163 fps=4.6 q=31.0 size=       1KiB time=00:00:02.70 bitrate=   2.1kbits/s speed=0.0765x elapsed=0:00:35.28    \nframe=  166 fps=4.6 q=34.0 size=       1KiB time=00:00:02.75 bitrate=   2.1kbits/s speed=0.0768x elapsed=0:00:35.79    \nframe=  169 fps=4.7 q=29.0 size=       1KiB time=00:00:02.80 bitrate=   2.0kbits/s speed=0.0771x elapsed=0:00:36.31    \nframe=  172 fps=4.7 q=34.0 size=       1KiB time=00:00:02.85 bitrate=   2.0kbits/s speed=0.0774x elapsed=0:00:36.83    \nframe=  177 fps=4.7 q=23.0 size=       1KiB time=00:00:02.93 bitrate=   1.9kbits/s speed=0.0785x elapsed=0:00:37.34    \nframe=  179 fps=4.7 q=32.0 size=       1KiB time=00:00:02.96 bitrate=   1.9kbits/s speed=0.0783x elapsed=0:00:37.88    \nframe=  182 fps=4.7 q=34.0 size=       1KiB time=00:00:03.01 bitrate=   1.9kbits/s speed=0.0785x elapsed=0:00:38.40    \nframe=  185 fps=4.8 q=28.0 size=       1KiB time=00:00:03.06 bitrate=   1.9kbits/s speed=0.0788x elapsed=0:00:38.93    \nframe=  189 fps=4.8 q=29.0 size=       1KiB time=00:00:03.13 bitrate=   1.8kbits/s speed=0.0794x elapsed=0:00:39.46    \nframe=  193 fps=4.8 q=22.0 size=       1KiB time=00:00:03.20 bitrate=   1.8kbits/s speed=0.0801x elapsed=0:00:39.96    \nframe=  196 fps=4.8 q=35.0 size=       1KiB time=00:00:03.25 bitrate=   1.8kbits/s speed=0.0803x elapsed=0:00:40.49    \nframe=  199 fps=4.8 q=32.0 size=       1KiB time=00:00:03.30 bitrate=   1.7kbits/s speed=0.0804x elapsed=0:00:41.04    \nframe=  202 fps=4.9 q=35.0 size=       1KiB time=00:00:03.35 bitrate=   1.7kbits/s speed=0.0806x elapsed=0:00:41.58    \nframe=  207 fps=4.9 q=32.0 size=       1KiB time=00:00:03.43 bitrate=   1.7kbits/s speed=0.0815x elapsed=0:00:42.14    \nframe=  211 fps=4.9 q=33.0 size=       1KiB time=00:00:03.50 bitrate=   1.6kbits/s speed=0.082x elapsed=0:00:42.69    \nframe=  215 fps=5.0 q=33.0 size=       1KiB time=00:00:03.56 bitrate=   1.6kbits/s speed=0.0826x elapsed=0:00:43.20    \nframe=  217 fps=5.0 q=29.0 size=       1KiB time=00:00:03.60 bitrate=   1.6kbits/s speed=0.0823x elapsed=0:00:43.72    \nframe=  221 fps=5.0 q=30.0 size=       1KiB time=00:00:03.66 bitrate=   1.6kbits/s speed=0.0829x elapsed=0:00:44.23    \nframe=  225 fps=5.0 q=23.0 size=       1KiB time=00:00:03.73 bitrate=   1.5kbits/s speed=0.0834x elapsed=0:00:44.75    \nframe=  229 fps=5.1 q=29.0 size=       1KiB time=00:00:03.80 bitrate=   1.5kbits/s speed=0.0839x elapsed=0:00:45.29    \nframe=  233 fps=5.1 q=30.0 size=       1KiB time=00:00:03.86 bitrate=   1.5kbits/s speed=0.0844x elapsed=0:00:45.82    \nframe=  235 fps=5.1 q=32.0 size=       1KiB time=00:00:03.90 bitrate=   1.5kbits/s speed=0.0841x elapsed=0:00:46.35    \nframe=  239 fps=5.1 q=32.0 size=       1KiB time=00:00:03.96 bitrate=   1.4kbits/s speed=0.0846x elapsed=0:00:46.91    \nframe=  241 fps=5.1 q=24.0 size=       1KiB time=00:00:04.00 bitrate=   1.4kbits/s speed=0.0843x elapsed=0:00:47.42    \nframe=  245 fps=5.1 q=30.0 size=       1KiB time=00:00:04.06 bitrate=   1.4kbits/s speed=0.0848x elapsed=0:00:47.93    \nframe=  249 fps=5.1 q=29.0 size=       1KiB time=00:00:04.13 bitrate=   1.4kbits/s speed=0.0853x elapsed=0:00:48.45    \nframe=  251 fps=5.1 q=33.0 size=       1KiB time=00:00:04.16 bitrate=   1.4kbits/s speed=0.085x elapsed=0:00:48.99    \nframe=  253 fps=5.1 q=30.0 size=       1KiB time=00:00:04.20 bitrate=   1.4kbits/s speed=0.0848x elapsed=0:00:49.51    \nframe=  259 fps=5.2 q=33.0 size=       1KiB time=00:00:04.30 bitrate=   1.3kbits/s speed=0.0858x elapsed=0:00:50.09    \nframe=  265 fps=5.2 q=30.0 size=       1KiB time=00:00:04.40 bitrate=   1.3kbits/s speed=0.0869x elapsed=0:00:50.63    \nframe=  265 fps=5.2 q=30.0 size=       1KiB time=00:00:04.40 bitrate=   1.3kbits/s speed=0.086x elapsed=0:00:51.15    \nframe=  269 fps=5.2 q=32.0 size=       1KiB time=00:00:04.43 bitrate=   1.3kbits/s speed=0.0858x elapsed=0:00:51.68    \nframe=  271 fps=5.2 q=35.0 size=       1KiB time=00:00:04.50 bitrate=   1.3kbits/s speed=0.0862x elapsed=0:00:52.20    \nframe=  277 fps=5.3 q=35.0 size=       1KiB time=00:00:04.60 bitrate=   1.2kbits/s speed=0.0873x elapsed=0:00:52.72    \nframe=  281 fps=5.3 q=32.0 size=       1KiB time=00:00:04.66 bitrate=   1.2kbits/s speed=0.0876x elapsed=0:00:53.24    \nframe=  285 fps=5.3 q=35.0 size=       1KiB time=00:00:04.73 bitrate=   1.2kbits/s speed=0.088x elapsed=0:00:53.76    \nframe=  293 fps=5.4 q=32.0 size=       1KiB time=00:00:04.86 bitrate=   1.2kbits/s speed=0.0896x elapsed=0:00:54.28    \n[out#0/matroska @ 00000226afb47900] video:2031KiB audio:0KiB subtitle:0KiB other streams:0KiB global headers:0KiB muxing overhead: 0.103103%\nframe=  300 fps=5.5 q=35.0 Lsize=    2033KiB time=00:00:04.98 bitrate=3341.7kbits/s speed=0.0913x elapsed=0:00:54.56    \n",
  "seconds": 54.975016355514526,
  "probe_out": {}
}